<?xml version="1.0" encoding="iso-8859-1"?>
<!-- Generator: Adobe Illustrator 19.0.0, SVG Export Plug-In . SVG Version: 6.00 Build 0)  -->
<svg version="1.1" id="Capa_1" xmlns="http://www.w3.org/2000/svg" xmlns:xlink="http://www.w3.org/1999/xlink" x="0px" y="0px"
	 viewBox="0 0 512 512" style="enable-background:new 0 0 512 512;" xml:space="preserve">
<rect x="176.391" y="196.512" style="fill:#70BBEF;" width="159.21" height="257.226"/>
<rect x="176.391" y="196.512" style="fill:#4CAEE5;" width="25.002" height="257.226"/>
<path style="fill:#F9B938;" d="M222.814,146.272h66.373c23.562-12.077,39.699-37.588,39.699-65.886
	c0-40.253-32.632-72.886-72.886-72.886s-72.886,32.632-72.886,72.886C183.115,108.684,199.251,134.195,222.814,146.272z"/>
<path style="fill:#EAA224;" d="M221.738,80.387c0-33.565,22.696-61.814,53.574-70.28c-46.45-12.737-92.198,22.254-92.198,70.28
	c0,28.297,16.136,53.809,39.699,65.886h38.623C237.874,134.195,221.738,108.684,221.738,80.387z"/>
<path style="fill:#E6E7E8;" d="M306.932,172.273H205.069c-7.456,0-13.501-6.044-13.501-13.501s6.044-13.501,13.501-13.501h101.862
	c7.456,0,13.501,6.044,13.501,13.501C320.433,166.229,314.389,172.273,306.932,172.273z"/>
<path style="fill:#D9DADB;" d="M216.57,158.773c0-7.456,6.044-13.501,13.501-13.501h-25.002c-7.456,0-13.501,6.044-13.501,13.501
	s6.044,13.501,13.501,13.501h25.002C222.614,172.273,216.57,166.229,216.57,158.773z"/>
<path style="fill:#C0C0C0;" d="M337.934,199.275H174.067c-7.456,0-13.501-6.044-13.501-13.501c0-7.456,6.044-13.501,13.501-13.501
	h163.866c7.456,0,13.501,6.044,13.501,13.501C351.435,193.231,345.39,199.275,337.934,199.275z"/>
<path style="fill:#AFB1B2;" d="M210.819,185.774c0-7.456,6.044-13.501,13.501-13.501h-50.253c-7.456,0-13.501,6.044-13.501,13.501
	c0,7.456,6.044,13.501,13.501,13.501h50.253C216.864,199.275,210.819,193.231,210.819,185.774z"/>
<path style="fill:#C0C0C0;" d="M306.932,477.498H205.069c-7.456,0-13.501,6.044-13.501,13.501s6.044,13.501,13.501,13.501h101.862
	c7.456,0,13.501-6.044,13.501-13.501C320.433,483.542,314.389,477.498,306.932,477.498z"/>
<g>
	<polygon style="fill:#D83D3D;" points="335.604,322.684 335.604,266.11 269.009,199.515 212.435,199.515 	"/>
	<polygon style="fill:#D83D3D;" points="176.396,274.139 335.604,433.346 335.604,376.774 176.396,217.566 	"/>
</g>
<polygon style="fill:#C43131;" points="201.398,242.568 176.396,217.566 176.396,274.139 201.398,299.14 "/>
<polygon style="fill:#D83D3D;" points="176.396,384.801 242.331,450.735 298.904,450.735 176.396,328.229 "/>
<polygon style="fill:#C43131;" points="201.398,353.23 176.396,328.229 176.396,384.801 201.398,409.803 "/>
<path style="fill:#E6E7E8;" d="M337.934,450.496H174.067c-7.456,0-13.501,6.044-13.501,13.501c0,7.456,6.044,13.501,13.501,13.501
	h163.866c7.456,0,13.501-6.044,13.501-13.501C351.435,456.541,345.39,450.496,337.934,450.496z"/>
<path style="fill:#D9DADB;" d="M210.819,463.997c0-7.456,6.044-13.501,13.501-13.501h-50.253c-7.456,0-13.501,6.044-13.501,13.501
	c0,7.456,6.044,13.501,13.501,13.501h50.253C216.864,477.498,210.819,471.454,210.819,463.997z"/>
<path style="fill:#AFB1B2;" d="M216.57,490.999c0-7.456,6.044-13.501,13.501-13.501h-25.002c-7.456,0-13.501,6.044-13.501,13.501
	s6.044,13.501,13.501,13.501h25.002C222.614,504.5,216.57,498.455,216.57,490.999z"/>
<path d="M94.797,330.184h23.78c4.143,0,7.5-3.357,7.5-7.5c0-4.143-3.357-7.5-7.5-7.5h-23.78c-4.143,0-7.5,3.357-7.5,7.5
	C87.297,326.827,90.654,330.184,94.797,330.184z"/>
<path d="M385.922,322.684c0,4.143,3.357,7.5,7.5,7.5h23.78c4.143,0,7.5-3.357,7.5-7.5c0-4.143-3.357-7.5-7.5-7.5h-23.78
	C389.28,315.183,385.922,318.54,385.922,322.684z"/>
<path d="M133.239,384.899l-20.595,11.891c-3.587,2.071-4.816,6.658-2.745,10.246c1.389,2.406,3.91,3.751,6.502,3.751
	c1.272,0,2.563-0.324,3.743-1.006l20.595-11.891c3.587-2.071,4.816-6.658,2.745-10.246
	C141.413,384.056,136.824,382.83,133.239,384.899z"/>
<path d="M375.018,261.474c1.272,0,2.563-0.324,3.743-1.006l20.595-11.891c3.587-2.071,4.816-6.658,2.745-10.246
	c-2.07-3.587-6.659-4.817-10.246-2.745l-20.595,11.891C364.633,251.303,367.369,261.474,375.018,261.474z"/>
<path d="M371.261,397.89l20.595,11.891c1.182,0.682,2.471,1.006,3.743,1.006c2.592,0,5.113-1.345,6.502-3.751
	c2.071-3.587,0.842-8.175-2.745-10.246l-20.595-11.891c-3.59-2.07-8.175-0.844-10.246,2.745
	C366.445,391.232,367.674,395.819,371.261,397.89z"/>
<path d="M112.644,248.578l20.595,11.891c1.182,0.682,2.471,1.006,3.743,1.006c2.592,0,5.113-1.345,6.502-3.751
	c2.071-3.587,0.842-8.174-2.745-10.246l-20.595-11.891c-3.59-2.073-8.176-0.842-10.246,2.745
	C107.827,241.92,109.057,246.507,112.644,248.578z"/>
<path d="M168.897,443.667c-9.083,2.313-15.83,10.538-15.83,20.33c0,11.58,9.422,21.001,21.001,21.001h10.886
	C180.916,498.505,191.106,512,205.07,512h15.079c4.143,0,7.5-3.357,7.5-7.5s-3.357-7.5-7.5-7.5H205.07c-3.309,0-6-2.691-6-6
	c0-3.309,2.691-6,6-6h101.861c3.309,0,6,2.691,6,6c0,3.309-2.691,6-6,6h-51.78c-4.143,0-7.5,3.357-7.5,7.5s3.357,7.5,7.5,7.5h51.78
	c13.992,0,24.148-13.515,20.116-27.002h10.886c11.58,0,21.001-9.422,21.001-21.001c0-9.793-6.747-18.017-15.83-20.33
	c0-21.639,0-203.685,0-237.561c9.083-2.313,15.83-10.538,15.83-20.33c0-11.581-9.422-21.001-21.001-21.001h-10.885
	c3.478-11.638-3.63-23.687-15.329-26.43c15.569-14.915,24.668-35.652,24.668-57.958C336.387,36.061,300.326,0,256,0
	s-80.387,36.061-80.387,80.386c0,22.305,9.1,43.042,24.668,57.958c-11.668,2.735-18.817,14.761-15.329,26.43h-10.885
	c-11.58,0-21.001,9.421-21.001,21.001c0,9.793,6.747,18.017,15.83,20.33C168.897,230.483,168.897,418.984,168.897,443.667z
	 M245.198,442.996l-61.301-61.301v-35.358l96.659,96.659H245.198z M223.983,442.996h-40.085V402.91L223.983,442.996z
	 M301.772,442.996L183.898,325.122v-32.874l75.626,75.626c2.93,2.928,7.678,2.928,10.608,0c2.929-2.93,2.929-7.678,0-10.608
	l-86.234-86.233v-35.358l144.206,144.207v35.358l-33.211-33.213c-2.929-2.927-7.677-2.929-10.608,0
	c-2.929,2.93-2.929,7.678,0,10.608l43.819,43.82v6.541h-26.331V442.996z M183.898,214.459v-7.443h25.432l24.831,24.83
	c2.93,2.929,7.678,2.929,10.608,0c2.929-2.929,2.929-7.678,0-10.607l-14.224-14.224h35.358l62.202,62.202v35.358l-58.575-58.577
	c-2.929-2.929-7.677-2.93-10.608,0c-2.929,2.929-2.929,7.678,0,10.608l69.183,69.184v32.874L183.898,214.459z M328.103,248.002
	l-40.987-40.986h40.987V248.002z M337.933,469.997c-20.091,0-137.559,0-163.865,0c-3.309,0-6-2.691-6-6c0-3.309,2.691-6,6-6h0.479
	c0.593,0.151,1.21,0.239,1.85,0.239c0.1,0,172.687,0.074,161.536-0.239c3.309,0,6,2.691,6,6
	C343.933,467.306,341.242,469.997,337.933,469.997z M190.615,80.386c0-36.053,29.332-65.385,65.386-65.385
	s65.386,29.332,65.386,65.385c0,24.057-13.004,45.884-34.061,57.385h-62.65C203.618,126.27,190.615,104.443,190.615,80.386z
	 M199.07,158.773c0-3.309,2.691-6,6-6c9.084,0,85.203,0,101.861,0c3.309,0,6,2.691,6,6s-2.691,6-6,6H205.07
	C201.761,164.773,199.07,162.082,199.07,158.773z M174.068,179.774c19.126,0,146.372,0,163.865,0c3.309,0,6,2.691,6,6s-2.691,6-6,6
	H174.068c-3.309,0-6-2.691-6-6S170.759,179.774,174.068,179.774z"/>
<g>
</g>
<g>
</g>
<g>
</g>
<g>
</g>
<g>
</g>
<g>
</g>
<g>
</g>
<g>
</g>
<g>
</g>
<g>
</g>
<g>
</g>
<g>
</g>
<g>
</g>
<g>
</g>
<g>
</g>
</svg>
